<svg
  xmlns="http://www.w3.org/2000/svg"
  width="1280"
  height="420"
  viewBox="0 0 1280 420"
  role="img"
  aria-labelledby="title description"
>
  <title id="title">Paged PDF JS — paged document stack</title>
  <desc id="description">
    Stacked pages contain an HTML code tag flowing through an arrow into a red
    PDF label. The lockup describes direct creation of PDF objects.
  </desc>

  <!-- Paged-media stack with conversion on the front page -->
  <g transform="translate(48 38)">
    <path d="M91 10h180l65 65v242c0 18-14 32-32 32H91c-18 0-32-14-32-32V42c0-18 14-32 32-32z" fill="#9BE5ED"/>
    <path d="M64 30h180l65 65v232c0 18-14 32-32 32H64c-18 0-32-14-32-32V62c0-18 14-32 32-32z" fill="#2BB7CF"/>
    <path d="M36 0h190l76 76v232c0 24-20 44-44 44H36c-24 0-44-20-44-44V44C-8 20 12 0 36 0z" fill="#FDFBF7" stroke="#08303C" stroke-width="16"/>
    <path d="M226 0v52c0 14 11 25 25 25h51z" fill="#E75252"/>

    <text x="88" y="128" fill="#08303C" font-family="Arial, Helvetica, sans-serif" font-size="56" font-weight="800" text-anchor="middle">&lt;/&gt;</text>
    <path d="M119 156h74c31 0 54 20 54 47" fill="none" stroke="#F5A623" stroke-linecap="round" stroke-width="16"/>
    <path d="M226 188l26 30-39 1z" fill="#F5A623"/>
    <circle cx="119" cy="156" r="10" fill="#FDFBF7" stroke="#08303C" stroke-width="6"/>

    <rect x="92" y="224" width="162" height="72" rx="22" fill="#E75252"/>
    <text x="173" y="276" fill="#FFFFFF" font-family="Arial, Helvetica, sans-serif" font-size="48" font-weight="800" letter-spacing="3" text-anchor="middle">PDF</text>
    <circle cx="70" cy="322" r="8" fill="#08303C"/>
    <circle cx="98" cy="322" r="8" fill="#2BB7CF"/>
    <circle cx="126" cy="322" r="8" fill="#E75252"/>
  </g>

  <text x="442" y="136" fill="#08303C" font-family="Arial, Helvetica, sans-serif" font-size="76" font-weight="800" letter-spacing="-2">paged-pdf-js</text>
  <text x="446" y="211" fill="#2BB7CF" font-family="Arial, Helvetica, sans-serif" font-size="39" font-weight="800" letter-spacing="1">HTML + CSS → PDF OBJECTS</text>
  <line x1="446" y1="245" x2="1212" y2="245" stroke="#F5A623" stroke-width="8"/>

  <g transform="translate(446 279)">
    <rect width="262" height="56" rx="28" fill="#08303C"/>
    <text x="131" y="37" fill="#FDFBF7" font-family="Arial, Helvetica, sans-serif" font-size="23" font-weight="700" text-anchor="middle">SELECTABLE TEXT</text>
    <rect x="278" width="248" height="56" rx="28" fill="#2BB7CF"/>
    <text x="402" y="37" fill="#08303C" font-family="Arial, Helvetica, sans-serif" font-size="23" font-weight="700" text-anchor="middle">VECTOR PATHS</text>
    <rect x="542" width="190" height="56" rx="28" fill="#E75252"/>
    <text x="637" y="37" fill="#FFFFFF" font-family="Arial, Helvetica, sans-serif" font-size="23" font-weight="700" text-anchor="middle">NO CANVAS</text>
  </g>
</svg>
